<svg width="25" height="25" fill="none" stroke="#2c90ff" stroke-linecap="round" stroke-linejoin="round" stroke-width="1.5" viewBox="0 0 24 24" xmlns="http://www.w3.org/2000/svg">
  <path d="M12 9a3.5 3.5 0 1 0 0-7 3.5 3.5 0 0 0 0 7Z"></path>
  <path d="M2 20.5c0-4.418 4.03-8 9-8"></path>
  <path d="M15.925 14C14.862 14 14 15.004 14 16.243c0 2.243 2.275 4.283 3.5 4.757 1.225-.474 3.5-2.514 3.5-4.757C21 15.004 20.138 14 19.075 14c-.651 0-1.227.377-1.575.953-.348-.576-.924-.953-1.575-.953Z"></path>
</svg>