<svg width="30" height="30" fill="#2c90f9" viewBox="0 0 24 24" xmlns="http://www.w3.org/2000/svg">
  <path fill-rule="evenodd" d="M12 5.881A5.39 5.39 0 0 1 16.05 4C18.822 4 21 6.178 21 8.95c0 3.4-3.055 6.17-7.684 10.367l-.011.01L12 20.515l-1.305-1.179-.036-.032C6.044 15.11 3 12.344 3 8.95 3 6.178 5.178 4 7.95 4A5.39 5.39 0 0 1 12 5.881Zm0 12.204.09-.09c4.284-3.879 7.11-6.444 7.11-9.045 0-1.8-1.35-3.15-3.15-3.15-1.386 0-2.736.891-3.204 2.124h-1.683C10.686 6.691 9.336 5.8 7.95 5.8c-1.8 0-3.15 1.35-3.15 3.15 0 2.601 2.826 5.166 7.11 9.045l.09.09Z" clip-rule="evenodd"></path>
</svg>